10 PLAY "L16<GGG2GGG2GGL8GFEDCP8"
20 PLAY "L4<G8.G16>C<G>ECG.A8G G8.G16>L4CC<L8A.G16FAL2G."
30 PLAY "L4G8.G16AADD8.D16G.F8E <G8.G16>GG8A8L8GFEDL2C."
40 PLAY "L4G8.G16>CC<AA8.G16F.G8A D8.D16GG8A8L8GFEDL1C"
50 PLAY "L4 C8.<G16>EE.P8 E8.C16AA.P8 <A.A8>DD8.E16D8C8<B8A8G3P8>"
60 PLAY "L4 C<GA8AG8>CDE.P8 DA8A8G8GE8DAGP8"
70 PLAY "L4 >C8C8.C16C8<G8A.>C8 <A8.G16F8A8GP8 >C8.C16C8C8<GG8A8L8GFEDC4"
80 PLAY "L4<G8.G16>C<G>ECG.A8G G8.G16>L4CC<L8A.G16FAL2G."
90 PLAY "L4G8.G16AADD8.D16G.F8E <G8.G16>GG8A8L8GFEDL2C."
100 PLAY "L4G8.G16>CC<AA8.G16F.G8A D8.D16GG8A8L8BGAB>L1C"

