<?xml version="1.0" encoding="UTF-8" standalone="no"?>
<!-- Created with Inkscape (http://www.inkscape.org/) -->

<svg
   xmlns:dc="http://purl.org/dc/elements/1.1/"
   xmlns:cc="http://creativecommons.org/ns#"
   xmlns:rdf="http://www.w3.org/1999/02/22-rdf-syntax-ns#"
   xmlns:svg="http://www.w3.org/2000/svg"
   xmlns="http://www.w3.org/2000/svg"
   xmlns:sodipodi="http://sodipodi.sourceforge.net/DTD/sodipodi-0.dtd"
   xmlns:inkscape="http://www.inkscape.org/namespaces/inkscape"
   id="svg3004"
   version="1.1"
   inkscape:version="0.48.5 r10040"
   width="158.87834"
   height="209.80652"
   xml:space="preserve"
   sodipodi:docname="Peppa_Pig.svg"><metadata
     id="metadata3010"><rdf:RDF><cc:Work
         rdf:about=""><dc:format>image/svg+xml</dc:format><dc:type
           rdf:resource="http://purl.org/dc/dcmitype/StillImage" /></cc:Work></rdf:RDF></metadata><defs
     id="defs3008"><linearGradient
       x1="0"
       y1="0"
       x2="1"
       y2="0"
       gradientUnits="userSpaceOnUse"
       gradientTransform="matrix(-2.19e-5,501.81543,-501.81543,-2.19e-5,334.71094,0)"
       spreadMethod="pad"
       id="linearGradient3026"><stop
         style="stop-opacity:1;stop-color:#e7f0f9"
         offset="0"
         id="stop3028" /><stop
         style="stop-opacity:1;stop-color:#c8ddf0"
         offset="0.5"
         id="stop3030" /><stop
         style="stop-opacity:1;stop-color:#89bde2"
         offset="1"
         id="stop3032" /></linearGradient><clipPath
       clipPathUnits="userSpaceOnUse"
       id="clipPath3040"><path
         d="m 0,501.814 669.422,0 L 669.422,0 0,0 0,501.814 z"
         id="path3042"
         inkscape:connector-curvature="0" /></clipPath><clipPath
       clipPathUnits="userSpaceOnUse"
       id="clipPath3048"><path
         d="m 0,501.814 669.385,0 L 669.385,0 0,0 0,501.814 z"
         id="path3050"
         inkscape:connector-curvature="0" /></clipPath><clipPath
       clipPathUnits="userSpaceOnUse"
       id="clipPath7344"><path
         d="m 0,501.814 669.422,0 L 669.422,0 0,0 0,501.814 z"
         id="path7346"
         inkscape:connector-curvature="0" /></clipPath></defs><sodipodi:namedview
     pagecolor="#ffffff"
     bordercolor="#666666"
     borderopacity="1"
     objecttolerance="10"
     gridtolerance="10"
     guidetolerance="10"
     inkscape:pageopacity="0"
     inkscape:pageshadow="2"
     inkscape:window-width="1278"
     inkscape:window-height="1022"
     id="namedview3006"
     showgrid="false"
     inkscape:zoom="1.2865324"
     inkscape:cx="-45.277863"
     inkscape:cy="61.106193"
     inkscape:window-x="0"
     inkscape:window-y="0"
     inkscape:window-maximized="0"
     inkscape:current-layer="g3012"
     fit-margin-top="0"
     fit-margin-left="0"
     fit-margin-right="0"
     fit-margin-bottom="0" /><g
     id="g3012"
     inkscape:groupmode="layer"
     inkscape:label="FreeVector-Pig-Family"
     transform="matrix(1.25,0,0,-1.25,-232.14528,492.64752)"><g
       id="g8073"><g
         transform="translate(273.68865,359.1273)"
         id="g7640"><path
           inkscape:connector-curvature="0"
           id="path7642"
           style="fill:#ed96bf;fill-opacity:1;fill-rule:nonzero;stroke:none"
           d="m 0,0 c 1.569,2.725 3.321,4.021 5.687,6.725 1.726,2.019 4.025,4.782 4.06,8.493 0,0.391 -0.027,0.794 -0.088,1.194 -0.5,4.266 -3.477,6.743 -6.596,6.648 C 0.2,23.033 -2.584,21.418 -4.423,18.909 -7.116,15.155 -8.06,10.452 -9.146,6.472 c -0.231,-0.857 0.28,-1.743 1.139,-1.974 0.86,-0.232 1.746,0.278 1.975,1.138 1.088,4.1 2.07,8.443 4.222,11.382 1.259,1.766 3.321,2.838 4.873,2.815 1.588,-0.099 2.823,-0.683 3.406,-3.895 0.034,-0.232 0.05,-0.474 0.05,-0.72 C 6.554,13.008 4.944,10.758 3.251,8.84 1.177,6.43 -0.878,4.902 -2.792,1.616 -3.238,0.844 -2.975,-0.141 -2.204,-0.588 -1.95,-0.735 -1.672,-0.805 -1.397,-0.805 -0.841,-0.805 -0.3,-0.517 0,0" /></g><g
         transform="translate(254.94065,368.847)"
         id="g7644"><path
           inkscape:connector-curvature="0"
           id="path7646"
           style="fill:#ed96bf;fill-opacity:1;fill-rule:nonzero;stroke:none"
           d="m 0,0 c 3.753,2.754 7.411,10.089 7.528,16.549 0.014,2.875 -0.869,5.797 -3.379,7.552 -1.05,0.746 -2.181,1.173 -3.322,1.17 C -1,25.249 -2.388,24.305 -3.717,23.269 -6.366,21.248 -7.869,19.249 -8.63,15.847 -9.095,13.913 -9.31,11.639 -9.31,9.322 c 0.003,-2.764 0.309,-5.555 0.963,-7.839 0.249,-0.855 1.143,-1.346 1.998,-1.1 0.857,0.247 1.352,1.143 1.101,1.999 -0.539,1.852 -0.84,4.426 -0.837,6.94 0,2.107 0.207,4.186 0.59,5.767 0.776,2.953 1.342,3.652 3.777,5.648 1.192,0.952 2.008,1.327 2.545,1.308 C 1.183,22.04 1.605,21.938 2.3,21.461 3.649,20.52 4.29,18.872 4.304,16.549 4.421,11.463 0.558,4.147 -1.835,2.655 l 0,-0.003 C -2.568,2.147 -2.751,1.144 -2.246,0.41 -1.933,-0.044 -1.43,-0.287 -0.917,-0.287 -0.601,-0.287 -0.28,-0.194 0,0" /></g><g
         transform="translate(237.57435,261.0707)"
         id="g7648"><path
           inkscape:connector-curvature="0"
           id="path7650"
           style="fill:#efbcd4;fill-opacity:1;fill-rule:nonzero;stroke:none"
           d="m 0,0 c 1.068,0.057 1.888,0.968 1.831,2.035 l -2.22,41.721 c -0.056,1.067 -0.968,1.885 -2.035,1.828 -1.068,-0.057 -1.888,-0.968 -1.828,-2.035 L -2.035,1.828 c 0.055,-1.032 0.91,-1.831 1.931,-1.831 0.035,0 0.069,0.001 0.104,0.003" /></g><g
         transform="translate(236.27365,259.055)"
         id="g7652"><path
           inkscape:connector-curvature="0"
           id="path7654"
           style="fill:#231f20;fill-opacity:1;fill-rule:nonzero;stroke:none"
           d="M 0,0 C 2.613,0 4.731,1.462 4.731,3.264 4.731,5.066 2.613,6.528 0,6.528 l -23.252,1.794 c -3.332,0 -6.031,-1.863 -6.031,-4.161 0,-2.297 2.699,-4.161 6.031,-4.161 L 0,0 z" /></g><g
         transform="translate(234.32825,227.2855)"
         id="g7656"><path
           inkscape:connector-curvature="0"
           id="path7658"
           style="fill:#efbcd4;fill-opacity:1;fill-rule:nonzero;stroke:none"
           d="M 0,0 C 1.067,0.052 1.892,0.959 1.84,2.026 L 0.334,33.164 c -0.051,1.065 -0.959,1.891 -2.025,1.84 -1.067,-0.052 -1.891,-0.959 -1.84,-2.026 L -2.028,1.84 c 0.049,-1.035 0.903,-1.842 1.928,-1.842 0.034,0 0.067,0.001 0.1,0.002" /></g><g
         transform="translate(218.26775,226.2728)"
         id="g7660"><path
           inkscape:connector-curvature="0"
           id="path7662"
           style="fill:#231f20;fill-opacity:1;fill-rule:nonzero;stroke:none"
           d="M 0,0 C -2.188,0 -3.957,1.391 -3.957,3.106 -3.957,4.82 -2.188,6.21 0,6.21 L 15.255,4.872 c 1.715,0 3.104,-1.092 3.104,-2.436 C 18.359,1.091 16.97,0 15.255,0 L 0,0 z" /></g><g
         transform="translate(271.92795,227.2855)"
         id="g7664"><path
           inkscape:connector-curvature="0"
           id="path7666"
           style="fill:#efbcd4;fill-opacity:1;fill-rule:nonzero;stroke:none"
           d="M 0,0 C 1.066,0.052 1.891,0.959 1.84,2.026 L 0.336,33.164 c -0.053,1.065 -0.959,1.891 -2.027,1.84 -1.067,-0.052 -1.891,-0.959 -1.84,-2.026 L -2.028,1.84 c 0.052,-1.035 0.903,-1.842 1.929,-1.842 0.033,0 0.066,0.001 0.099,0.002" /></g><g
         transform="translate(255.86735,226.2728)"
         id="g7668"><path
           inkscape:connector-curvature="0"
           id="path7670"
           style="fill:#231f20;fill-opacity:1;fill-rule:nonzero;stroke:none"
           d="M 0,0 C -2.187,0 -3.957,1.391 -3.957,3.106 -3.957,4.82 -2.187,6.21 0,6.21 L 15.256,4.872 C 16.971,4.872 18.36,3.78 18.36,2.436 18.36,1.091 16.971,0 15.256,0 L 0,0 z" /></g><g
         transform="translate(300.14275,269.4418)"
         id="g7672"><path
           inkscape:connector-curvature="0"
           id="path7674"
           style="fill:#efbcd4;fill-opacity:1;fill-rule:nonzero;stroke:none"
           d="m 0,0 -0.021,0 c -0.359,0 -0.87,-0.198 -1.238,-0.551 -0.379,-0.365 -0.591,-0.8 -0.591,-1.294 0.002,-0.395 0.137,-0.978 0.73,-1.708 1.83,1 2.264,2.108 2.214,2.537 -0.022,0.422 -0.17,0.7 -0.725,0.947 C 0.256,-0.024 0.146,0 0,0 M 8.514,-7.194 C 7.576,-8.46 5.834,-9.99 3.29,-9.993 c -1.601,0.003 -3.3,0.61 -5.069,1.858 -0.037,0.025 -0.073,0.05 -0.108,0.075 -0.576,-0.184 -1.185,-0.348 -1.83,-0.489 -2.084,-0.459 -3.631,-0.649 -4.857,-0.649 -1.264,0.008 -2.242,0.182 -3.114,0.754 -0.894,0.559 -1.337,1.684 -1.291,2.39 0.01,0.757 0.239,1.177 0.309,1.332 0.482,0.954 1.646,1.336 2.6,0.852 0.582,-0.295 0.951,-0.842 1.042,-1.442 0.128,-0.009 0.278,-0.017 0.454,-0.016 0.762,-0.003 1.959,0.122 3.672,0.482 -0.543,0.976 -0.819,1.99 -0.818,3.001 C -5.645,1.538 -2.916,3.829 0,3.87 0.588,3.872 1.203,3.771 1.797,3.529 3.658,2.834 4.988,1.009 4.964,-1.016 4.924,-2.868 4.002,-4.574 2.277,-5.94 2.686,-6.075 3.021,-6.121 3.29,-6.121 c 0.892,-0.002 1.536,0.497 2.133,1.261 0.279,0.368 0.497,0.764 0.634,1.054 0.069,0.145 0.118,0.264 0.147,0.339 0.03,0.074 0.027,0.077 0.03,0.077 0.338,1.016 1.434,1.564 2.447,1.228 1.014,-0.336 1.563,-1.432 1.227,-2.446 C 9.865,-4.725 9.484,-5.9 8.514,-7.194" /></g><g
         transform="translate(312.57345,281.224)"
         id="g7676"><path
           inkscape:connector-curvature="0"
           id="path7678"
           style="fill:#efbcd4;fill-opacity:1;fill-rule:nonzero;stroke:none"
           d="m 0,0 c 0.472,0.756 0.243,1.753 -0.513,2.223 -0.115,0.034 -18.99,11.965 -34.287,13.144 -0.888,0.065 -1.659,-0.6 -1.726,-1.49 -0.065,-0.888 0.602,-1.66 1.49,-1.727 10.437,-0.737 23.789,-7.494 29.691,-10.836 1.979,-1.11 3.12,-1.823 3.123,-1.826 l 0,-0.002 c 0.266,-0.167 0.561,-0.245 0.852,-0.245 0.539,0 1.064,0.269 1.37,0.759" /></g><g
         transform="translate(305.14475,279.4007)"
         id="g7680"><path
           inkscape:connector-curvature="0"
           id="path7682"
           style="fill:#efbcd4;fill-opacity:1;fill-rule:nonzero;stroke:none"
           d="m 0,0 c 0.768,0.456 1.021,1.445 0.566,2.211 -0.763,1.291 -0.998,2.245 -0.994,2.896 0.016,1.051 0.509,1.681 1.485,2.348 0.957,0.627 2.287,1.024 3.163,1.204 0.587,0.123 0.927,0.158 0.927,0.158 l 0,-0.003 C 6.035,8.905 6.681,9.696 6.59,10.584 6.502,11.471 5.708,12.117 4.823,12.026 4.732,12.013 2.861,11.833 0.834,10.97 -1.123,10.163 -3.64,8.364 -3.656,5.107 c 0.002,-1.408 0.48,-2.908 1.448,-4.542 0.3,-0.507 0.837,-0.791 1.388,-0.791 0.279,0 0.562,0.074 0.82,0.226" /></g><g
         transform="translate(188.89865,280.5433)"
         id="g7684"><path
           inkscape:connector-curvature="0"
           id="path7686"
           style="fill:#efbcd4;fill-opacity:1;fill-rule:nonzero;stroke:none"
           d="m 0,0 c 14.861,10.419 29.602,13.147 31.116,13.256 l 0.003,0.002 0,-0.002 c 0.893,0 1.613,0.723 1.613,1.615 0,0.894 -0.72,1.614 -1.613,1.614 -0.635,-0.018 -1.674,-0.19 -3.607,-0.617 -1.883,-0.424 -4.435,-1.104 -7.45,-2.131 C 14.033,11.682 6.156,8.234 -1.852,2.643 -2.58,2.134 -2.758,1.128 -2.248,0.397 c 0.314,-0.449 0.816,-0.689 1.324,-0.689 0.32,0 0.643,0.095 0.924,0.292" /></g><g
         transform="translate(194.57435,278.8773)"
         id="g7688"><path
           inkscape:connector-curvature="0"
           id="path7690"
           style="fill:#efbcd4;fill-opacity:1;fill-rule:nonzero;stroke:none"
           d="M 0,0 C 0.051,0.143 2.555,2.771 2.643,6.252 2.678,7.797 1.94,9.577 0.281,10.722 -1.361,11.88 -3.711,12.553 -7.148,12.77 -8.037,12.823 -8.801,12.148 -8.855,11.259 -8.91,10.37 -8.232,9.606 -7.346,9.55 -4.244,9.368 -2.453,8.722 -1.592,8.095 -0.748,7.45 -0.617,6.981 -0.582,6.252 -0.537,5.017 -1.598,3.186 -2.17,2.461 -2.352,2.215 -2.445,2.104 -2.447,2.104 l 0,-10e-4 c -0.58,-0.676 -0.504,-1.696 0.17,-2.274 0.306,-0.261 0.681,-0.39 1.054,-0.39 C -0.77,-0.561 -0.32,-0.37 0,0" /></g><g
         transform="translate(292.92405,248.9593)"
         id="g7692"><path
           inkscape:connector-curvature="0"
           id="path7694"
           style="fill:#e9655f;fill-opacity:1;fill-rule:nonzero;stroke:none"
           d="m 0,0 -88.391,0 c 0,0 3.332,40.97 20.861,58.497 l 44.303,1.506 c 0,0 12.475,5.162 23.227,-60.003" /></g><g
         transform="translate(205.95525,250.2503)"
         id="g7696"><path
           inkscape:connector-curvature="0"
           id="path7698"
           style="fill:#e5392e;fill-opacity:1;fill-rule:nonzero;stroke:none"
           d="m 0,0 85.448,0 c -4.554,27.086 -9.402,41.621 -13.368,49.264 -4.073,7.817 -7.006,8.262 -7.673,8.256 -0.114,0 -0.186,-0.013 -0.218,-0.018 l -0.002,-0.001 -0.003,0.01 -0.399,-0.088 -43.788,-1.488 C 11.749,47.463 6.633,33.238 3.689,21.081 2.189,14.917 1.232,9.286 0.648,5.202 0.324,2.924 0.119,1.137 0,0 m 86.971,-2.579 -88.393,0 c -0.359,0 -0.707,0.151 -0.948,0.415 -0.245,0.263 -0.366,0.621 -0.339,0.978 0.07,0.11 3.196,41.117 21.234,59.306 0.232,0.232 0.546,0.367 0.871,0.376 l 44.13,1.5 c 0.204,0.053 0.501,0.105 0.881,0.105 2.052,-0.005 5.759,-1.486 9.966,-9.652 4.244,-8.203 9.215,-23.326 13.871,-51.53 0.062,-0.371 -0.045,-0.756 -0.291,-1.043 -0.244,-0.29 -0.604,-0.455 -0.982,-0.455" /></g><g
         transform="translate(193.60755,372.8402)"
         id="g7700"><path
           inkscape:connector-curvature="0"
           id="path7702"
           style="fill:#efbcd4;fill-opacity:1;fill-rule:nonzero;stroke:none"
           d="M 0,0 C 4.174,7.216 13.975,7.593 21.521,7.264 31.975,6.811 42.396,5.202 53.854,1.54 c -0.385,3.34 -0.255,7.156 0.416,9.933 0.768,3.178 1.802,4.526 4.346,6.536 2.052,1.621 3.691,2.356 5.939,0.779 5.552,-3.892 1.438,-15.473 -2.68,-20.099 3.729,-1.502 7.418,-3.259 10.875,-5.373 0.991,3.779 1.984,7.854 4.215,10.932 3.197,4.413 10.132,5.453 11.178,-1.78 0.49,-3.385 -1.7,-6.22 -3.594,-8.401 -1.875,-2.16 -3.522,-3.51 -5.038,-5.685 3.435,-2.991 6.411,-6.502 8.622,-10.694 4.963,-9.406 5.732,-19.482 3.006,-29.434 -2.618,-9.55 -8.215,-15.769 -17.432,-19.861 -11.596,-5.152 -24.959,-5.854 -36.818,-1.211 -10.332,4.044 -16.672,12.898 -16.381,24.057 0.146,5.644 1.76,11.023 3.765,16.244 C 13.483,-28.567 -8.838,-15.275 0,0" /></g><g
         transform="translate(211.76385,378.5746)"
         id="g7704"><path
           inkscape:connector-curvature="0"
           id="path7706"
           style="fill:#ed96bf;fill-opacity:1;fill-rule:nonzero;stroke:none"
           d="m 0,0 -0.129,0 c -6.734,0 -13.656,-1.261 -16.631,-6.539 -1.275,-2.214 -1.801,-4.294 -1.802,-6.305 -0.045,-5.403 4.076,-10.767 9.574,-15.104 4.597,-3.65 10.05,-6.533 14.187,-8.22 0.125,0.313 0.25,0.624 0.376,0.934 0.337,0.826 1.278,1.223 2.101,0.885 0.824,-0.334 1.223,-1.273 0.887,-2.1 l 10e-4,0.003 c -0.112,-0.278 -0.224,-0.555 -0.335,-0.833 1.401,-0.475 2.812,-0.939 4.225,-1.406 0.849,-0.277 1.31,-1.19 1.03,-2.036 -0.277,-0.845 -1.191,-1.306 -2.036,-1.028 -1.457,0.478 -2.917,0.96 -4.376,1.455 -1.707,-4.67 -2.984,-9.392 -3.108,-14.244 -0.005,-0.227 -0.008,-0.458 -0.008,-0.691 0.029,-10.157 5.798,-18.033 15.364,-21.822 5.159,-2.016 10.617,-2.988 16.092,-2.988 6.651,0 13.326,1.44 19.486,4.172 8.873,3.984 13.986,9.675 16.529,18.813 0.99,3.616 1.501,7.23 1.501,10.811 -0.002,5.946 -1.397,11.805 -4.376,17.444 -6.003,11.424 -18.097,17.824 -30.03,21.982 C 25.867,-2.402 14.636,-0.576 3.295,-0.081 2.227,-0.033 1.121,0 0,0 m 35.412,-83.264 -0.022,0 c -5.849,0 -11.701,1.041 -17.245,3.21 -10.637,4.13 -17.444,13.365 -17.415,24.825 0,0.254 0.002,0.514 0.008,0.777 0.143,5.369 1.534,10.431 3.307,15.272 -4.421,1.795 -10.089,4.79 -15.035,8.703 -5.795,4.615 -10.756,10.556 -10.801,17.633 -0.002,2.592 0.707,5.274 2.238,7.918 C -15.394,2.131 -6.98,3.212 0,3.227 1.186,3.225 2.339,3.19 3.437,3.142 15.029,2.639 26.63,0.752 39.586,-3.771 c 12.205,-4.268 25.152,-10.927 31.819,-23.52 3.22,-6.091 4.751,-12.498 4.749,-18.952 0,-3.889 -0.554,-7.791 -1.617,-11.662 -2.689,-9.962 -8.771,-16.707 -18.33,-20.91 -6.566,-2.913 -13.678,-4.449 -20.795,-4.449" /></g><g
         transform="translate(200.01185,353.1087)"
         id="g7708"><path
           inkscape:connector-curvature="0"
           id="path7710"
           style="fill:#ed96bf;fill-opacity:1;fill-rule:nonzero;stroke:none"
           d="m 0,0 c 6.164,0.105 13.361,4.148 15.686,9.789 0.847,2.199 1.373,4.764 1.376,7.329 0.053,4.434 -1.754,9.318 -6.847,10.913 l -0.002,0 C 9.363,28.297 8.458,27.826 8.191,26.974 7.926,26.125 8.399,25.22 9.249,24.953 c 3.296,-1.037 4.536,-4.03 4.587,-7.835 0.002,-2.113 -0.453,-4.345 -1.158,-6.166 C 11.336,7.095 4.697,3.12 0,3.228 c -2.103,0.017 -3.575,0.649 -4.445,1.964 -1.127,1.716 -1.756,2.7 -2.032,3.32 -0.265,0.617 -0.306,0.868 -0.318,1.797 0,0.346 0.016,0.78 0.025,1.31 0.026,0.889 -0.675,1.632 -1.568,1.652 -0.889,0.024 -1.629,-0.678 -1.652,-1.568 -0.016,-0.516 -0.03,-0.964 -0.03,-1.394 C -10.033,9.231 -9.895,8.2 -9.416,7.178 -8.947,6.159 -8.268,5.146 -7.143,3.424 -5.545,0.979 -2.799,0 -0.076,0 L 0,0 z" /></g><g
         transform="translate(251.99625,366.806)"
         id="g7712"><path
           inkscape:connector-curvature="0"
           id="path7714"
           style="fill:#ffffff;fill-opacity:1;fill-rule:nonzero;stroke:none"
           d="m 0,0 c 5.787,-0.135 7.411,-7.979 3.264,-11.404 -4.97,-4.103 -11.446,-0.317 -10.676,5.795 0.396,3.136 2.804,5.257 5.998,5.843 L 0,0 z" /></g><g
         transform="translate(251.95915,365.1927)"
         id="g7716"><path
           inkscape:connector-curvature="0"
           id="path7718"
           style="fill:#ed96bf;fill-opacity:1;fill-rule:nonzero;stroke:none"
           d="m 0,0 -0.227,0.024 -1.109,0.184 c -2.531,-0.576 -4.132,-2.116 -4.439,-4.405 -0.03,-0.259 -0.045,-0.524 -0.045,-0.781 0.019,-2.977 2.173,-4.891 4.638,-4.913 1.097,0.004 2.279,0.378 3.455,1.345 1.154,0.948 1.729,2.399 1.731,3.901 C 3.94,-2.135 2.557,-0.056 0,0 m 4.329,-11.032 c -1.701,-1.409 -3.647,-2.087 -5.511,-2.085 -4.228,0.011 -7.857,3.461 -7.865,8.139 0,0.383 0.022,0.777 0.072,1.18 0.477,3.915 3.594,6.592 7.309,7.234 L -1.113,3.44 0.195,3.224 c 4.552,-0.176 7.1,-4.166 7.036,-7.869 0.003,-2.314 -0.905,-4.732 -2.902,-6.387" /></g><g
         transform="translate(234.65645,373.3714)"
         id="g7720"><path
           inkscape:connector-curvature="0"
           id="path7722"
           style="fill:#ffffff;fill-opacity:1;fill-rule:nonzero;stroke:none"
           d="m 0,0 c 2.844,-0.703 5.022,-2.078 4.668,-5.274 -0.269,-2.424 -1.643,-5.079 -3.787,-6.307 -4.049,-2.318 -11.856,1.874 -8.847,6.782 1.551,2.529 4.349,4.089 7.124,4.799 L 0,0 z" /></g><g
         transform="translate(234.65735,371.7611)"
         id="g7724"><path
           inkscape:connector-curvature="0"
           id="path7726"
           style="fill:#ed96bf;fill-opacity:1;fill-rule:nonzero;stroke:none"
           d="M 0,0 0,1.611 0,0 z M 2.29,-1.137 C 1.78,-0.687 0.899,-0.286 -0.206,0 l -0.42,0 c -2.43,-0.65 -4.764,-2.043 -5.965,-4.031 -0.33,-0.544 -0.433,-0.98 -0.435,-1.367 -0.012,-0.781 0.5,-1.662 1.535,-2.412 1.013,-0.734 2.449,-1.211 3.683,-1.202 0.744,0 1.395,0.159 1.887,0.444 1.543,0.836 2.791,3.102 2.985,5.085 0.022,0.177 0.029,0.33 0.029,0.483 -0.024,0.953 -0.274,1.374 -0.803,1.863 M 1.684,-11.369 c -1.089,-0.62 -2.302,-0.867 -3.492,-0.87 -1.989,0.01 -3.965,0.671 -5.564,1.811 -1.576,1.126 -2.869,2.858 -2.879,5.03 -0.003,1.024 0.309,2.077 0.909,3.053 1.87,3.023 5.044,4.732 8.102,5.518 L -0.841,3.225 0,3.225 0.386,3.177 C 1.835,2.813 3.24,2.293 4.397,1.305 5.56,0.335 6.345,-1.226 6.321,-3 6.321,-3.268 6.306,-3.553 6.271,-3.853 5.927,-6.708 4.427,-9.749 1.684,-11.369" /></g><g
         transform="translate(274.21695,344.0804)"
         id="g7728"><path
           inkscape:connector-curvature="0"
           id="path7730"
           style="fill:#ef9cc3;fill-opacity:1;fill-rule:nonzero;stroke:none"
           d="m 0,0 c 4.031,-3.401 5.291,-7.784 3.553,-12.843 -1.335,-3.884 -4.85,-7.728 -9.088,-8.327 -9.879,-1.395 -12.106,13.392 -6.32,18.878 2.884,2.734 6.988,4.566 10.844,2.965 L 0,0 z" /></g><g
         transform="translate(254.01875,323.3597)"
         id="g7732"><path
           inkscape:connector-curvature="0"
           id="path7734"
           style="fill:#e54c8d;fill-opacity:1;fill-rule:nonzero;stroke:none"
           d="m 0,0 0,-0.003 c 0.425,0.785 0.134,1.764 -0.651,2.186 -0.784,0.425 -1.762,0.133 -2.187,-0.65 0,0 -0.043,-0.083 -0.168,-0.283 -0.123,-0.203 -0.315,-0.502 -0.575,-0.862 -0.518,-0.725 -1.303,-1.7 -2.338,-2.664 -2.078,-1.936 -5.058,-3.785 -8.994,-3.785 -1.495,0 -3.152,0.268 -4.992,0.925 -8.043,2.983 -8.805,7.397 -8.899,10.004 0,0.601 0.062,1.096 0.117,1.428 0.059,0.334 0.1,0.445 0.096,0.443 0.266,0.852 -0.211,1.755 -1.062,2.02 -0.85,0.264 -1.752,-0.211 -2.018,-1.064 -0.031,-0.112 -0.357,-1.189 -0.361,-2.827 -0.093,-3.543 1.86,-9.841 11.039,-13.042 2.161,-0.774 4.197,-1.113 6.08,-1.113 C -4.847,-9.181 -0.099,-0.112 0,0" /></g><g
         transform="translate(249.61445,359.9291)"
         id="g7736"><path
           inkscape:connector-curvature="0"
           id="path7738"
           style="fill:#231f20;fill-opacity:1;fill-rule:nonzero;stroke:none"
           d="m 0,0 c 0,-1.247 0.972,-2.26 2.169,-2.26 1.197,0 2.168,1.013 2.168,2.26 0,1.248 -0.971,2.258 -2.168,2.258 C 0.972,2.258 0,1.248 0,0" /></g><g
         transform="translate(231.90445,366.7044)"
         id="g7740"><path
           inkscape:connector-curvature="0"
           id="path7742"
           style="fill:#231f20;fill-opacity:1;fill-rule:nonzero;stroke:none"
           d="m 0,0 c 0,-1.247 0.972,-2.259 2.17,-2.259 1.197,0 2.168,1.012 2.168,2.259 0,1.248 -0.971,2.26 -2.168,2.26 C 0.972,2.26 0,1.248 0,0" /></g><g
         transform="translate(205.06955,366.389)"
         id="g7744"><path
           inkscape:connector-curvature="0"
           id="path7746"
           style="fill:#bc739b;fill-opacity:1;fill-rule:nonzero;stroke:none"
           d="m 0,0 c 0,-1.323 1.052,-2.395 2.349,-2.395 1.297,0 2.349,1.072 2.349,2.395 0,1.323 -1.052,2.394 -2.349,2.394 C 1.052,2.394 0,1.323 0,0" /></g><g
         transform="translate(197.32735,367.8949)"
         id="g7748"><path
           inkscape:connector-curvature="0"
           id="path7750"
           style="fill:#bc739b;fill-opacity:1;fill-rule:nonzero;stroke:none"
           d="m 0,0 c 0,-1.322 1.052,-2.395 2.349,-2.395 1.297,0 2.349,1.073 2.349,2.395 0,1.321 -1.052,2.394 -2.349,2.394 C 1.052,2.394 0,1.321 0,0" /></g></g></g></svg>